<svg width="23" height="23" viewBox="0 0 23 23" fill="none" xmlns="http://www.w3.org/2000/svg">
<g clip-path="url(#clip0_136_424)">
<g filter="url(#filter0_i_136_424)">
<path d="M6.98495 6.70209C6.69446 6.10191 6.94543 5.37989 7.54558 5.08931C8.14579 4.79872 8.86796 5.04975 9.15851 5.65001L10.6129 8.65476C10.3516 7.64219 10.121 6.66438 10.0022 5.95927C9.85749 5.31707 10.1244 4.66557 10.8457 4.43728C11.5107 4.25133 12.1821 4.69557 12.3271 5.36768C12.5822 6.54925 13.0086 8.29985 13.5115 9.74535C13.8641 9.2114 14.0941 8.43763 14.3323 7.74998C14.677 6.89479 15.3813 6.62552 16.042 6.89729C16.6453 7.14545 16.9573 7.81488 16.7594 8.43646L16.2905 9.90929C16.2246 10.1828 16.095 10.8098 16.0069 11.6062C15.941 12.2016 15.9438 12.5701 15.9469 12.9545C15.9494 13.271 15.952 13.5984 15.9163 14.0721C15.8651 14.7506 15.6922 15.2695 15.5549 15.6055L15.5494 15.605C15.2474 16.38 14.7131 17.0734 13.969 17.5706C12.6429 18.4566 10.9958 18.4889 9.67644 17.7963C8.50252 17.2025 7.75735 16.2765 7.08022 15.435C6.91563 15.2305 6.75504 15.0309 6.59333 14.8424C6.06462 14.1616 5.61792 13.7117 5.34233 13.4479L4.17195 12.3763C3.68015 11.926 3.6465 11.1623 4.09682 10.6705C4.54713 10.1786 5.31087 10.145 5.80269 10.5953L6.81976 11.5266L5.22134 9.50692C4.80751 8.98403 4.89592 8.22468 5.41881 7.81085C5.94167 7.39704 6.70106 7.48542 7.11489 8.0083L8.40816 9.64243L6.98495 6.70209Z" fill="#FFC23F"/>
<path d="M6.98495 6.70209C6.69446 6.10191 6.94543 5.37989 7.54558 5.08931C8.14579 4.79872 8.86796 5.04975 9.15851 5.65001L10.6129 8.65476C10.3516 7.64219 10.121 6.66438 10.0022 5.95927C9.85749 5.31707 10.1244 4.66557 10.8457 4.43728C11.5107 4.25133 12.1821 4.69557 12.3271 5.36768C12.5822 6.54925 13.0086 8.29985 13.5115 9.74535C13.8641 9.2114 14.0941 8.43763 14.3323 7.74998C14.677 6.89479 15.3813 6.62552 16.042 6.89729C16.6453 7.14545 16.9573 7.81488 16.7594 8.43646L16.2905 9.90929C16.2246 10.1828 16.095 10.8098 16.0069 11.6062C15.941 12.2016 15.9438 12.5701 15.9469 12.9545C15.9494 13.271 15.952 13.5984 15.9163 14.0721C15.8651 14.7506 15.6922 15.2695 15.5549 15.6055L15.5494 15.605C15.2474 16.38 14.7131 17.0734 13.969 17.5706C12.6429 18.4566 10.9958 18.4889 9.67644 17.7963C8.50252 17.2025 7.75735 16.2765 7.08022 15.435C6.91563 15.2305 6.75504 15.0309 6.59333 14.8424C6.06462 14.1616 5.61792 13.7117 5.34233 13.4479L4.17195 12.3763C3.68015 11.926 3.6465 11.1623 4.09682 10.6705C4.54713 10.1786 5.31087 10.145 5.80269 10.5953L6.81976 11.5266L5.22134 9.50692C4.80751 8.98403 4.89592 8.22468 5.41881 7.81085C5.94167 7.39704 6.70106 7.48542 7.11489 8.0083L8.40816 9.64243L6.98495 6.70209Z" fill="url(#paint0_radial_136_424)"/>
<path d="M6.98495 6.70209C6.69446 6.10191 6.94543 5.37989 7.54558 5.08931C8.14579 4.79872 8.86796 5.04975 9.15851 5.65001L10.6129 8.65476C10.3516 7.64219 10.121 6.66438 10.0022 5.95927C9.85749 5.31707 10.1244 4.66557 10.8457 4.43728C11.5107 4.25133 12.1821 4.69557 12.3271 5.36768C12.5822 6.54925 13.0086 8.29985 13.5115 9.74535C13.8641 9.2114 14.0941 8.43763 14.3323 7.74998C14.677 6.89479 15.3813 6.62552 16.042 6.89729C16.6453 7.14545 16.9573 7.81488 16.7594 8.43646L16.2905 9.90929C16.2246 10.1828 16.095 10.8098 16.0069 11.6062C15.941 12.2016 15.9438 12.5701 15.9469 12.9545C15.9494 13.271 15.952 13.5984 15.9163 14.0721C15.8651 14.7506 15.6922 15.2695 15.5549 15.6055L15.5494 15.605C15.2474 16.38 14.7131 17.0734 13.969 17.5706C12.6429 18.4566 10.9958 18.4889 9.67644 17.7963C8.50252 17.2025 7.75735 16.2765 7.08022 15.435C6.91563 15.2305 6.75504 15.0309 6.59333 14.8424C6.06462 14.1616 5.61792 13.7117 5.34233 13.4479L4.17195 12.3763C3.68015 11.926 3.6465 11.1623 4.09682 10.6705C4.54713 10.1786 5.31087 10.145 5.80269 10.5953L6.81976 11.5266L5.22134 9.50692C4.80751 8.98403 4.89592 8.22468 5.41881 7.81085C5.94167 7.39704 6.70106 7.48542 7.11489 8.0083L8.40816 9.64243L6.98495 6.70209Z" fill="url(#paint1_radial_136_424)"/>
</g>
<g filter="url(#filter1_f_136_424)">
<path d="M4.89893 11.0609L7.4387 13.4136" stroke="#FFDA3E" stroke-width="1.5" stroke-linecap="round"/>
</g>
<path d="M6.65051 14.9093C6.63157 14.8869 6.61258 14.8646 6.5936 14.8425C6.06491 14.1618 5.61819 13.7118 5.34259 13.448L4.17224 12.3764C3.68043 11.9261 3.64678 11.1624 4.09709 10.6706C4.54741 10.1788 5.31115 10.1451 5.80296 10.5954L6.81892 11.5257L8.10268 12.6643C8.74245 13.3824 7.9851 14.8925 6.65051 14.9093Z" fill="url(#paint2_linear_136_424)"/>
<path d="M6.65051 14.9093C6.63157 14.8869 6.61258 14.8646 6.5936 14.8425C6.06491 14.1618 5.61819 13.7118 5.34259 13.448L4.17224 12.3764C3.68043 11.9261 3.64678 11.1624 4.09709 10.6706C4.54741 10.1788 5.31115 10.1451 5.80296 10.5954L6.81892 11.5257L8.10268 12.6643C8.74245 13.3824 7.9851 14.8925 6.65051 14.9093Z" fill="url(#paint3_linear_136_424)"/>
<g filter="url(#filter2_f_136_424)">
<path d="M6.28564 8.48866L8.68298 11.3029" stroke="#FFDA3E" stroke-width="1.5" stroke-linecap="round"/>
</g>
<path d="M9.66678 11.229C9.87945 11.5473 9.9992 12.1062 9.50132 12.5704C8.97233 13.0636 8.24784 12.7698 8.02089 12.6083L6.80742 11.5164L5.22168 9.50665C4.80786 8.98377 4.89626 8.22442 5.41917 7.81058C5.94203 7.39676 6.70137 7.48518 7.11521 8.00806L9.66678 11.229Z" fill="url(#paint4_linear_136_424)"/>
<path d="M9.66678 11.229C9.87945 11.5473 9.9992 12.1062 9.50132 12.5704C8.97233 13.0636 8.24784 12.7698 8.02089 12.6083L6.80742 11.5164L5.22168 9.50665C4.80786 8.98377 4.89626 8.22442 5.41917 7.81058C5.94203 7.39676 6.70137 7.48518 7.11521 8.00806L9.66678 11.229Z" fill="url(#paint5_linear_136_424)"/>
<path d="M9.66678 11.229C9.87945 11.5473 9.9992 12.1062 9.50132 12.5704C8.97233 13.0636 8.24784 12.7698 8.02089 12.6083L6.80742 11.5164L5.22168 9.50665C4.80786 8.98377 4.89626 8.22442 5.41917 7.81058C5.94203 7.39676 6.70137 7.48518 7.11521 8.00806L9.66678 11.229Z" fill="url(#paint6_radial_136_424)"/>
<path d="M9.66678 11.229C9.87945 11.5473 9.9992 12.1062 9.50132 12.5704C8.97233 13.0636 8.24784 12.7698 8.02089 12.6083L6.80742 11.5164L5.22168 9.50665C4.80786 8.98377 4.89626 8.22442 5.41917 7.81058C5.94203 7.39676 6.70137 7.48518 7.11521 8.00806L9.66678 11.229Z" fill="url(#paint7_linear_136_424)"/>
<path d="M9.66678 11.229C9.87945 11.5473 9.9992 12.1062 9.50132 12.5704C8.97233 13.0636 8.24784 12.7698 8.02089 12.6083L6.80742 11.5164L5.22168 9.50665C4.80786 8.98377 4.89626 8.22442 5.41917 7.81058C5.94203 7.39676 6.70137 7.48518 7.11521 8.00806L9.66678 11.229Z" fill="url(#paint8_radial_136_424)"/>
<g filter="url(#filter3_f_136_424)">
<path d="M8.35885 6.13687L10.4626 10.1151" stroke="#FFDA3E" stroke-width="1.5" stroke-linecap="round"/>
</g>
<path d="M9.58788 11.1303C9.79658 11.1634 10.0362 11.1532 10.3011 11.0684C11.1 10.8128 11.0486 9.94417 10.8672 9.49693L10.6129 8.65491L9.15853 5.65016C8.86799 5.0499 8.14582 4.79887 7.54557 5.08949C6.94545 5.38004 6.69444 6.10208 6.98494 6.70226L8.4063 9.63867L9.58788 11.1303Z" fill="url(#paint9_linear_136_424)"/>
<path d="M9.58788 11.1303C9.79658 11.1634 10.0362 11.1532 10.3011 11.0684C11.1 10.8128 11.0486 9.94417 10.8672 9.49693L10.6129 8.65491L9.15853 5.65016C8.86799 5.0499 8.14582 4.79887 7.54557 5.08949C6.94545 5.38004 6.69444 6.10208 6.98494 6.70226L8.4063 9.63867L9.58788 11.1303Z" fill="url(#paint10_linear_136_424)"/>
<path d="M9.58788 11.1303C9.79658 11.1634 10.0362 11.1532 10.3011 11.0684C11.1 10.8128 11.0486 9.94417 10.8672 9.49693L10.6129 8.65491L9.15853 5.65016C8.86799 5.0499 8.14582 4.79887 7.54557 5.08949C6.94545 5.38004 6.69444 6.10208 6.98494 6.70226L8.4063 9.63867L9.58788 11.1303Z" fill="url(#paint11_radial_136_424)"/>
<path d="M9.58788 11.1303C9.79658 11.1634 10.0362 11.1532 10.3011 11.0684C11.1 10.8128 11.0486 9.94417 10.8672 9.49693L10.6129 8.65491L9.15853 5.65016C8.86799 5.0499 8.14582 4.79887 7.54557 5.08949C6.94545 5.38004 6.69444 6.10208 6.98494 6.70226L8.4063 9.63867L9.58788 11.1303Z" fill="url(#paint12_radial_136_424)"/>
<path d="M9.58788 11.1303C9.79658 11.1634 10.0362 11.1532 10.3011 11.0684C11.1 10.8128 11.0486 9.94417 10.8672 9.49693L10.6129 8.65491L9.15853 5.65016C8.86799 5.0499 8.14582 4.79887 7.54557 5.08949C6.94545 5.38004 6.69444 6.10208 6.98494 6.70226L8.4063 9.63867L9.58788 11.1303Z" fill="url(#paint13_radial_136_424)"/>
<path d="M9.58788 11.1303C9.79658 11.1634 10.0362 11.1532 10.3011 11.0684C11.1 10.8128 11.0486 9.94417 10.8672 9.49693L10.6129 8.65491L9.15853 5.65016C8.86799 5.0499 8.14582 4.79887 7.54557 5.08949C6.94545 5.38004 6.69444 6.10208 6.98494 6.70226L8.4063 9.63867L9.58788 11.1303Z" fill="url(#paint14_linear_136_424)"/>
<g filter="url(#filter4_f_136_424)">
<path d="M13.0631 10.0691C12.8631 9.45108 12.2136 7.47589 11.6844 5.33393" stroke="url(#paint15_linear_136_424)" stroke-width="0.75" stroke-linecap="round"/>
</g>
<path d="M13.5143 9.74066C13.5135 9.74187 13.5127 9.74309 13.512 9.74427C13.5119 9.7443 13.5119 9.74423 13.512 9.74427C13.4491 9.56356 13.3874 9.37822 13.3271 9.1897C12.905 7.87013 12.5507 6.40057 12.3275 5.36668C12.3094 5.28266 12.283 5.20223 12.2495 5.12612C12.0147 4.59339 11.4279 4.27362 10.8461 4.43631C10.1248 4.66457 9.85786 5.3161 10.0026 5.95827C10.0592 6.29433 10.1412 6.6923 10.2398 7.12648C10.3481 7.60331 10.4765 8.12377 10.6133 8.65374L10.6061 8.63894L10.6132 8.65923L10.9287 9.66983C11.0273 9.98273 11.3415 10.6448 12.1939 10.6282C13.0463 10.6116 13.54 10.0885 13.5145 9.74575L13.5143 9.74066Z" fill="url(#paint16_linear_136_424)"/>
<path d="M13.5143 9.74066C13.5135 9.74187 13.5127 9.74309 13.512 9.74427C13.5119 9.7443 13.5119 9.74423 13.512 9.74427C13.4491 9.56356 13.3874 9.37822 13.3271 9.1897C12.905 7.87013 12.5507 6.40057 12.3275 5.36668C12.3094 5.28266 12.283 5.20223 12.2495 5.12612C12.0147 4.59339 11.4279 4.27362 10.8461 4.43631C10.1248 4.66457 9.85786 5.3161 10.0026 5.95827C10.0592 6.29433 10.1412 6.6923 10.2398 7.12648C10.3481 7.60331 10.4765 8.12377 10.6133 8.65374L10.6061 8.63894L10.6132 8.65923L10.9287 9.66983C11.0273 9.98273 11.3415 10.6448 12.1939 10.6282C13.0463 10.6116 13.54 10.0885 13.5145 9.74575L13.5143 9.74066Z" fill="url(#paint17_linear_136_424)"/>
<path d="M13.5143 9.74066C13.5135 9.74187 13.5127 9.74309 13.512 9.74427C13.5119 9.7443 13.5119 9.74423 13.512 9.74427C13.4491 9.56356 13.3874 9.37822 13.3271 9.1897C12.905 7.87013 12.5507 6.40057 12.3275 5.36668C12.3094 5.28266 12.283 5.20223 12.2495 5.12612C12.0147 4.59339 11.4279 4.27362 10.8461 4.43631C10.1248 4.66457 9.85786 5.3161 10.0026 5.95827C10.0592 6.29433 10.1412 6.6923 10.2398 7.12648C10.3481 7.60331 10.4765 8.12377 10.6133 8.65374L10.6061 8.63894L10.6132 8.65923L10.9287 9.66983C11.0273 9.98273 11.3415 10.6448 12.1939 10.6282C13.0463 10.6116 13.54 10.0885 13.5145 9.74575L13.5143 9.74066Z" fill="url(#paint18_radial_136_424)"/>
<path d="M13.5143 9.74066C13.5135 9.74187 13.5127 9.74309 13.512 9.74427C13.5119 9.7443 13.5119 9.74423 13.512 9.74427C13.4491 9.56356 13.3874 9.37822 13.3271 9.1897C12.905 7.87013 12.5507 6.40057 12.3275 5.36668C12.3094 5.28266 12.283 5.20223 12.2495 5.12612C12.0147 4.59339 11.4279 4.27362 10.8461 4.43631C10.1248 4.66457 9.85786 5.3161 10.0026 5.95827C10.0592 6.29433 10.1412 6.6923 10.2398 7.12648C10.3481 7.60331 10.4765 8.12377 10.6133 8.65374L10.6061 8.63894L10.6132 8.65923L10.9287 9.66983C11.0273 9.98273 11.3415 10.6448 12.1939 10.6282C13.0463 10.6116 13.54 10.0885 13.5145 9.74575L13.5143 9.74066Z" fill="url(#paint19_radial_136_424)"/>
<g filter="url(#filter5_f_136_424)">
<path d="M15.8081 7.59584C15.491 8.32135 14.8643 10.1658 14.8937 11.7397" stroke="url(#paint20_linear_136_424)" stroke-linecap="round"/>
</g>
<g filter="url(#filter6_f_136_424)">
<path d="M7.56593 13.7922C8.10936 12.8484 9.89128 10.8447 12.6717 10.3807" stroke="url(#paint21_linear_136_424)" stroke-width="1.5" stroke-linecap="round"/>
</g>
<path d="M6.98495 6.70209C6.69446 6.10191 6.94543 5.37989 7.54558 5.08931C8.14579 4.79872 8.86796 5.04975 9.15851 5.65001L10.6129 8.65476C10.3516 7.64219 10.121 6.66438 10.0022 5.95927C9.85749 5.31707 10.1244 4.66557 10.8457 4.43728C11.5107 4.25133 12.1821 4.69557 12.3271 5.36768C12.5822 6.54925 13.0086 8.29985 13.5115 9.74535C13.8641 9.2114 14.0941 8.43763 14.3323 7.74998C14.677 6.89479 15.3813 6.62552 16.042 6.89729C16.6453 7.14545 16.9573 7.81488 16.7594 8.43646L16.2905 9.90929C16.2246 10.1828 16.095 10.8098 16.0069 11.6062C15.941 12.2016 15.9438 12.5701 15.9469 12.9545C15.9494 13.271 15.952 13.5984 15.9163 14.0721C15.8651 14.7506 15.6922 15.2695 15.5549 15.6055L15.5494 15.605C15.2474 16.38 14.7131 17.0734 13.969 17.5706C12.6429 18.4566 10.9958 18.4889 9.67644 17.7963C8.50252 17.2025 7.75735 16.2765 7.08022 15.435C6.91563 15.2305 6.75504 15.0309 6.59333 14.8424C6.06462 14.1616 5.61792 13.7117 5.34233 13.4479L4.17195 12.3763C3.68015 11.926 3.6465 11.1623 4.09682 10.6705C4.54713 10.1786 5.31087 10.145 5.80269 10.5953L6.81976 11.5266L5.22134 9.50692C4.80751 8.98403 4.89592 8.22468 5.41881 7.81085C5.94167 7.39704 6.70106 7.48542 7.11489 8.0083L8.40816 9.64243L6.98495 6.70209Z" fill="url(#paint22_radial_136_424)"/>
<path d="M6.98495 6.70209C6.69446 6.10191 6.94543 5.37989 7.54558 5.08931C8.14579 4.79872 8.86796 5.04975 9.15851 5.65001L10.6129 8.65476C10.3516 7.64219 10.121 6.66438 10.0022 5.95927C9.85749 5.31707 10.1244 4.66557 10.8457 4.43728C11.5107 4.25133 12.1821 4.69557 12.3271 5.36768C12.5822 6.54925 13.0086 8.29985 13.5115 9.74535C13.8641 9.2114 14.0941 8.43763 14.3323 7.74998C14.677 6.89479 15.3813 6.62552 16.042 6.89729C16.6453 7.14545 16.9573 7.81488 16.7594 8.43646L16.2905 9.90929C16.2246 10.1828 16.095 10.8098 16.0069 11.6062C15.941 12.2016 15.9438 12.5701 15.9469 12.9545C15.9494 13.271 15.952 13.5984 15.9163 14.0721C15.8651 14.7506 15.6922 15.2695 15.5549 15.6055L15.5494 15.605C15.2474 16.38 14.7131 17.0734 13.969 17.5706C12.6429 18.4566 10.9958 18.4889 9.67644 17.7963C8.50252 17.2025 7.75735 16.2765 7.08022 15.435C6.91563 15.2305 6.75504 15.0309 6.59333 14.8424C6.06462 14.1616 5.61792 13.7117 5.34233 13.4479L4.17195 12.3763C3.68015 11.926 3.6465 11.1623 4.09682 10.6705C4.54713 10.1786 5.31087 10.145 5.80269 10.5953L6.81976 11.5266L5.22134 9.50692C4.80751 8.98403 4.89592 8.22468 5.41881 7.81085C5.94167 7.39704 6.70106 7.48542 7.11489 8.0083L8.40816 9.64243L6.98495 6.70209Z" fill="url(#paint23_radial_136_424)"/>
<path d="M6.98495 6.70209C6.69446 6.10191 6.94543 5.37989 7.54558 5.08931C8.14579 4.79872 8.86796 5.04975 9.15851 5.65001L10.6129 8.65476C10.3516 7.64219 10.121 6.66438 10.0022 5.95927C9.85749 5.31707 10.1244 4.66557 10.8457 4.43728C11.5107 4.25133 12.1821 4.69557 12.3271 5.36768C12.5822 6.54925 13.0086 8.29985 13.5115 9.74535C13.8641 9.2114 14.0941 8.43763 14.3323 7.74998C14.677 6.89479 15.3813 6.62552 16.042 6.89729C16.6453 7.14545 16.9573 7.81488 16.7594 8.43646L16.2905 9.90929C16.2246 10.1828 16.095 10.8098 16.0069 11.6062C15.941 12.2016 15.9438 12.5701 15.9469 12.9545C15.9494 13.271 15.952 13.5984 15.9163 14.0721C15.8651 14.7506 15.6922 15.2695 15.5549 15.6055L15.5494 15.605C15.2474 16.38 14.7131 17.0734 13.969 17.5706C12.6429 18.4566 10.9958 18.4889 9.67644 17.7963C8.50252 17.2025 7.75735 16.2765 7.08022 15.435C6.91563 15.2305 6.75504 15.0309 6.59333 14.8424C6.06462 14.1616 5.61792 13.7117 5.34233 13.4479L4.17195 12.3763C3.68015 11.926 3.6465 11.1623 4.09682 10.6705C4.54713 10.1786 5.31087 10.145 5.80269 10.5953L6.81976 11.5266L5.22134 9.50692C4.80751 8.98403 4.89592 8.22468 5.41881 7.81085C5.94167 7.39704 6.70106 7.48542 7.11489 8.0083L8.40816 9.64243L6.98495 6.70209Z" fill="url(#paint24_radial_136_424)"/>
<path d="M6.98495 6.70209C6.69446 6.10191 6.94543 5.37989 7.54558 5.08931C8.14579 4.79872 8.86796 5.04975 9.15851 5.65001L10.6129 8.65476C10.3516 7.64219 10.121 6.66438 10.0022 5.95927C9.85749 5.31707 10.1244 4.66557 10.8457 4.43728C11.5107 4.25133 12.1821 4.69557 12.3271 5.36768C12.5822 6.54925 13.0086 8.29985 13.5115 9.74535C13.8641 9.2114 14.0941 8.43763 14.3323 7.74998C14.677 6.89479 15.3813 6.62552 16.042 6.89729C16.6453 7.14545 16.9573 7.81488 16.7594 8.43646L16.2905 9.90929C16.2246 10.1828 16.095 10.8098 16.0069 11.6062C15.941 12.2016 15.9438 12.5701 15.9469 12.9545C15.9494 13.271 15.952 13.5984 15.9163 14.0721C15.8651 14.7506 15.6922 15.2695 15.5549 15.6055L15.5494 15.605C15.2474 16.38 14.7131 17.0734 13.969 17.5706C12.6429 18.4566 10.9958 18.4889 9.67644 17.7963C8.50252 17.2025 7.75735 16.2765 7.08022 15.435C6.91563 15.2305 6.75504 15.0309 6.59333 14.8424C6.06462 14.1616 5.61792 13.7117 5.34233 13.4479L4.17195 12.3763C3.68015 11.926 3.6465 11.1623 4.09682 10.6705C4.54713 10.1786 5.31087 10.145 5.80269 10.5953L6.81976 11.5266L5.22134 9.50692C4.80751 8.98403 4.89592 8.22468 5.41881 7.81085C5.94167 7.39704 6.70106 7.48542 7.11489 8.0083L8.40816 9.64243L6.98495 6.70209Z" fill="url(#paint25_radial_136_424)"/>
<path d="M6.98495 6.70209C6.69446 6.10191 6.94543 5.37989 7.54558 5.08931C8.14579 4.79872 8.86796 5.04975 9.15851 5.65001L10.6129 8.65476C10.3516 7.64219 10.121 6.66438 10.0022 5.95927C9.85749 5.31707 10.1244 4.66557 10.8457 4.43728C11.5107 4.25133 12.1821 4.69557 12.3271 5.36768C12.5822 6.54925 13.0086 8.29985 13.5115 9.74535C13.8641 9.2114 14.0941 8.43763 14.3323 7.74998C14.677 6.89479 15.3813 6.62552 16.042 6.89729C16.6453 7.14545 16.9573 7.81488 16.7594 8.43646L16.2905 9.90929C16.2246 10.1828 16.095 10.8098 16.0069 11.6062C15.941 12.2016 15.9438 12.5701 15.9469 12.9545C15.9494 13.271 15.952 13.5984 15.9163 14.0721C15.8651 14.7506 15.6922 15.2695 15.5549 15.6055L15.5494 15.605C15.2474 16.38 14.7131 17.0734 13.969 17.5706C12.6429 18.4566 10.9958 18.4889 9.67644 17.7963C8.50252 17.2025 7.75735 16.2765 7.08022 15.435C6.91563 15.2305 6.75504 15.0309 6.59333 14.8424C6.06462 14.1616 5.61792 13.7117 5.34233 13.4479L4.17195 12.3763C3.68015 11.926 3.6465 11.1623 4.09682 10.6705C4.54713 10.1786 5.31087 10.145 5.80269 10.5953L6.81976 11.5266L5.22134 9.50692C4.80751 8.98403 4.89592 8.22468 5.41881 7.81085C5.94167 7.39704 6.70106 7.48542 7.11489 8.0083L8.40816 9.64243L6.98495 6.70209Z" fill="url(#paint26_radial_136_424)"/>
</g>
<defs>
<filter id="filter0_i_136_424" x="3.77979" y="3.99491" width="13.4391" height="14.2848" filterUnits="userSpaceOnUse" color-interpolation-filters="sRGB">
<feFlood flood-opacity="0" result="BackgroundImageFix"/>
<feBlend mode="normal" in="SourceGraphic" in2="BackgroundImageFix" result="shape"/>
<feColorMatrix in="SourceAlpha" type="matrix" values="0 0 0 0 0 0 0 0 0 0 0 0 0 0 0 0 0 0 127 0" result="hardAlpha"/>
<feOffset dx="0.4" dy="-0.4"/>
<feGaussianBlur stdDeviation="1.125"/>
<feComposite in2="hardAlpha" operator="arithmetic" k2="-1" k3="1"/>
<feColorMatrix type="matrix" values="0 0 0 0 0.960784 0 0 0 0 0.486275 0 0 0 0 0.411765 0 0 0 1 0"/>
<feBlend mode="normal" in2="shape" result="effect1_innerShadow_136_424"/>
</filter>
<filter id="filter1_f_136_424" x="2.34893" y="8.51093" width="7.63955" height="7.45352" filterUnits="userSpaceOnUse" color-interpolation-filters="sRGB">
<feFlood flood-opacity="0" result="BackgroundImageFix"/>
<feBlend mode="normal" in="SourceGraphic" in2="BackgroundImageFix" result="shape"/>
<feGaussianBlur stdDeviation="0.9" result="effect1_foregroundBlur_136_424"/>
</filter>
<filter id="filter2_f_136_424" x="3.53564" y="5.73866" width="7.89746" height="8.31445" filterUnits="userSpaceOnUse" color-interpolation-filters="sRGB">
<feFlood flood-opacity="0" result="BackgroundImageFix"/>
<feBlend mode="normal" in="SourceGraphic" in2="BackgroundImageFix" result="shape"/>
<feGaussianBlur stdDeviation="1" result="effect1_foregroundBlur_136_424"/>
</filter>
<filter id="filter3_f_136_424" x="5.60889" y="3.3871" width="7.604" height="9.47852" filterUnits="userSpaceOnUse" color-interpolation-filters="sRGB">
<feFlood flood-opacity="0" result="BackgroundImageFix"/>
<feBlend mode="normal" in="SourceGraphic" in2="BackgroundImageFix" result="shape"/>
<feGaussianBlur stdDeviation="1" result="effect1_foregroundBlur_136_424"/>
</filter>
<filter id="filter4_f_136_424" x="10.0591" y="3.70937" width="4.62891" height="7.98438" filterUnits="userSpaceOnUse" color-interpolation-filters="sRGB">
<feFlood flood-opacity="0" result="BackgroundImageFix"/>
<feBlend mode="normal" in="SourceGraphic" in2="BackgroundImageFix" result="shape"/>
<feGaussianBlur stdDeviation="0.625" result="effect1_foregroundBlur_136_424"/>
</filter>
<filter id="filter5_f_136_424" x="12.8926" y="5.59609" width="4.91553" height="8.14453" filterUnits="userSpaceOnUse" color-interpolation-filters="sRGB">
<feFlood flood-opacity="0" result="BackgroundImageFix"/>
<feBlend mode="normal" in="SourceGraphic" in2="BackgroundImageFix" result="shape"/>
<feGaussianBlur stdDeviation="0.75" result="effect1_foregroundBlur_136_424"/>
</filter>
<filter id="filter6_f_136_424" x="4.81592" y="7.63124" width="10.606" height="8.91016" filterUnits="userSpaceOnUse" color-interpolation-filters="sRGB">
<feFlood flood-opacity="0" result="BackgroundImageFix"/>
<feBlend mode="normal" in="SourceGraphic" in2="BackgroundImageFix" result="shape"/>
<feGaussianBlur stdDeviation="1" result="effect1_foregroundBlur_136_424"/>
</filter>
<radialGradient id="paint0_radial_136_424" cx="0" cy="0" r="1" gradientUnits="userSpaceOnUse" gradientTransform="translate(13.5586 7.40774) rotate(128.341) scale(10.772 17.8164)">
<stop offset="0.85" stop-color="#F5A732" stop-opacity="0"/>
<stop offset="1" stop-color="#F5A732"/>
</radialGradient>
<radialGradient id="paint1_radial_136_424" cx="0" cy="0" r="1" gradientUnits="userSpaceOnUse" gradientTransform="translate(16.099 14.3775) rotate(-136.991) scale(2.74977 6.1617)">
<stop stop-color="#FFCC46"/>
<stop offset="1" stop-color="#FFCC46" stop-opacity="0"/>
</radialGradient>
<linearGradient id="paint2_linear_136_424" x1="6.90247" y1="11.5356" x2="6.69886" y2="11.7655" gradientUnits="userSpaceOnUse">
<stop stop-color="#D38C08"/>
<stop offset="1" stop-color="#D38C08" stop-opacity="0"/>
</linearGradient>
<linearGradient id="paint3_linear_136_424" x1="8.21629" y1="12.7432" x2="7.38255" y2="12.8589" gradientUnits="userSpaceOnUse">
<stop stop-color="#FFC23F"/>
<stop offset="1" stop-color="#FFC23F" stop-opacity="0"/>
</linearGradient>
<linearGradient id="paint4_linear_136_424" x1="8.36474" y1="9.39286" x2="8.07709" y2="9.62294" gradientUnits="userSpaceOnUse">
<stop stop-color="#C78A3B"/>
<stop offset="1" stop-color="#C78A3B" stop-opacity="0"/>
</linearGradient>
<linearGradient id="paint5_linear_136_424" x1="6.18225" y1="11.2456" x2="7.30052" y2="10.303" gradientUnits="userSpaceOnUse">
<stop stop-color="#E29208"/>
<stop offset="1" stop-color="#E29208" stop-opacity="0"/>
</linearGradient>
<radialGradient id="paint6_radial_136_424" cx="0" cy="0" r="1" gradientUnits="userSpaceOnUse" gradientTransform="translate(7.15617 12.183) rotate(-41.603) scale(0.457415 3.89243)">
<stop stop-color="#743200"/>
<stop offset="1" stop-color="#743200" stop-opacity="0"/>
</radialGradient>
<linearGradient id="paint7_linear_136_424" x1="9.74478" y1="11.3458" x2="8.79502" y2="10.5714" gradientUnits="userSpaceOnUse">
<stop stop-color="#FFC23F"/>
<stop offset="1" stop-color="#FFC23F" stop-opacity="0"/>
</linearGradient>
<radialGradient id="paint8_radial_136_424" cx="0" cy="0" r="1" gradientUnits="userSpaceOnUse" gradientTransform="translate(4.76076 8.24584) rotate(25.0123) scale(1.35582 1.66633)">
<stop stop-color="#E2A53A"/>
<stop offset="1" stop-color="#E2A53A" stop-opacity="0"/>
</radialGradient>
<linearGradient id="paint9_linear_136_424" x1="7.57533" y1="9.11232" x2="8.89652" y2="8.47429" gradientUnits="userSpaceOnUse">
<stop stop-color="#D58C07"/>
<stop offset="1" stop-color="#D58C07" stop-opacity="0"/>
</linearGradient>
<linearGradient id="paint10_linear_136_424" x1="10.8191" y1="8.55355" x2="10.3403" y2="8.77843" gradientUnits="userSpaceOnUse">
<stop stop-color="#CD8921"/>
<stop offset="1" stop-color="#CD8921" stop-opacity="0"/>
</linearGradient>
<radialGradient id="paint11_radial_136_424" cx="0" cy="0" r="1" gradientTransform="matrix(-0.357361 0.154211 -0.903844 -2.09451 10.9534 9.00744)" gradientUnits="userSpaceOnUse">
<stop stop-color="#854104"/>
<stop offset="1" stop-color="#854104" stop-opacity="0"/>
</radialGradient>
<radialGradient id="paint12_radial_136_424" cx="0" cy="0" r="1" gradientTransform="matrix(0.8074 -0.463724 2.041 3.55361 8.45464 10.8135)" gradientUnits="userSpaceOnUse">
<stop offset="0.216" stop-color="#854104"/>
<stop offset="1" stop-color="#854104" stop-opacity="0"/>
</radialGradient>
<radialGradient id="paint13_radial_136_424" cx="0" cy="0" r="1" gradientTransform="matrix(1.23112 1.03317 -1.55756 1.856 6.71357 5.34764)" gradientUnits="userSpaceOnUse">
<stop stop-color="#DBA737"/>
<stop offset="1" stop-color="#DBA737" stop-opacity="0"/>
</radialGradient>
<linearGradient id="paint14_linear_136_424" x1="10.3422" y1="10.9619" x2="9.57381" y2="9.54374" gradientUnits="userSpaceOnUse">
<stop stop-color="#FFC23F"/>
<stop offset="1" stop-color="#FFC23F" stop-opacity="0"/>
</linearGradient>
<linearGradient id="paint15_linear_136_424" x1="13.0187" y1="9.04647" x2="11.0056" y2="2.63068" gradientUnits="userSpaceOnUse">
<stop stop-color="#FFDA3E"/>
<stop offset="1" stop-color="#FFDA3E" stop-opacity="0"/>
</linearGradient>
<linearGradient id="paint16_linear_136_424" x1="9.92659" y1="7.97213" x2="11.6743" y2="7.56746" gradientUnits="userSpaceOnUse">
<stop stop-color="#CE8716"/>
<stop offset="1" stop-color="#CE8716" stop-opacity="0"/>
</linearGradient>
<linearGradient id="paint17_linear_136_424" x1="12.0916" y1="10.7866" x2="11.9639" y2="9.83048" gradientUnits="userSpaceOnUse">
<stop stop-color="#FFC23F"/>
<stop offset="1" stop-color="#FFC23F" stop-opacity="0"/>
</linearGradient>
<radialGradient id="paint18_radial_136_424" cx="0" cy="0" r="1" gradientUnits="userSpaceOnUse" gradientTransform="translate(9.73574 4.82425) rotate(52.8793) scale(1.48446 0.23579)">
<stop stop-color="#DBA737"/>
<stop offset="1" stop-color="#DBA737" stop-opacity="0"/>
</radialGradient>
<radialGradient id="paint19_radial_136_424" cx="0" cy="0" r="1" gradientUnits="userSpaceOnUse" gradientTransform="translate(13.6303 9.59445) rotate(170.611) scale(0.54927 1.5089)">
<stop offset="0.218" stop-color="#DFA63D"/>
<stop offset="1" stop-color="#DFA63D" stop-opacity="0"/>
</radialGradient>
<linearGradient id="paint20_linear_136_424" x1="15.808" y1="7.59567" x2="17.2322" y2="10.1745" gradientUnits="userSpaceOnUse">
<stop stop-color="#FFDA3E"/>
<stop offset="1" stop-color="#FFDA3E" stop-opacity="0"/>
</linearGradient>
<linearGradient id="paint21_linear_136_424" x1="12.2355" y1="10.9751" x2="6.37115" y2="15.3481" gradientUnits="userSpaceOnUse">
<stop stop-color="#FFD544"/>
<stop offset="1" stop-color="#FFD544" stop-opacity="0"/>
</linearGradient>
<radialGradient id="paint22_radial_136_424" cx="0" cy="0" r="1" gradientUnits="userSpaceOnUse" gradientTransform="translate(16.1737 6.71179) rotate(115.338) scale(1.60506 2.15269)">
<stop stop-color="#FFE949"/>
<stop offset="1" stop-color="#FFE949" stop-opacity="0"/>
</radialGradient>
<radialGradient id="paint23_radial_136_424" cx="0" cy="0" r="1" gradientUnits="userSpaceOnUse" gradientTransform="translate(11.4703 4.45713) rotate(90.4873) scale(1.36081 1.75927)">
<stop stop-color="#FFE949"/>
<stop offset="1" stop-color="#FFE949" stop-opacity="0"/>
</radialGradient>
<radialGradient id="paint24_radial_136_424" cx="0" cy="0" r="1" gradientUnits="userSpaceOnUse" gradientTransform="translate(8.10238 4.70383) rotate(81.4373) scale(1.82834 2.0223)">
<stop stop-color="#FFE949"/>
<stop offset="1" stop-color="#FFE949" stop-opacity="0"/>
</radialGradient>
<radialGradient id="paint25_radial_136_424" cx="0" cy="0" r="1" gradientTransform="matrix(0.491322 1.32029 -1.25904 0.468522 5.86586 7.51586)" gradientUnits="userSpaceOnUse">
<stop stop-color="#FFE949"/>
<stop offset="1" stop-color="#FFE949" stop-opacity="0"/>
</radialGradient>
<radialGradient id="paint26_radial_136_424" cx="0" cy="0" r="1" gradientUnits="userSpaceOnUse" gradientTransform="translate(4.97199 10.4532) rotate(75.6903) scale(0.84505 0.902255)">
<stop stop-color="#FFE949"/>
<stop offset="1" stop-color="#FFE949" stop-opacity="0"/>
</radialGradient>
<clipPath id="clip0_136_424">
<rect width="16" height="16" fill="white" transform="translate(0 8.88905) rotate(-33.7497)"/>
</clipPath>
</defs>
</svg>
